<svg width="64" height="64" viewBox="0 0 64 64" fill="none" xmlns="http://www.w3.org/2000/svg">
<rect width="64" height="64" rx="24" fill="#3D544D"/>
<path d="M30.2132 22.2419C31.0458 21.3444 31.462 20.8957 31.8001 20.8402C31.9332 20.8183 31.9957 20.8185 32.1286 20.8409C32.4664 20.898 32.8823 21.3503 33.7141 22.255C34.564 23.1793 35.6433 24.1143 36.7625 24.4651C37.6642 24.7478 38.8857 24.7433 39.8694 24.6705C40.6307 24.6141 41.0113 24.5859 41.2755 24.7357C41.3634 24.7855 41.4374 24.8434 41.507 24.9165C41.7163 25.1366 41.7731 25.4663 41.8867 26.1258C42.292 28.4791 42.7802 32.8106 41.5527 35.6279C40.4217 38.2238 37.3528 40.6387 34.9902 42.2012C33.8789 42.9361 33.3233 43.3035 32.4125 43.4251C32.1721 43.4572 31.7527 43.4654 31.5113 43.4429C30.5963 43.3574 30.0257 43.0117 28.8845 42.3202C26.3542 40.787 23.0012 38.3501 21.793 35.6279C20.548 32.8227 21.0404 28.4974 21.4518 26.1391C21.5679 25.4738 21.6259 25.1411 21.839 24.9205C21.9096 24.8474 21.9856 24.7892 22.0744 24.7401C22.3429 24.5916 22.7244 24.6261 23.4875 24.6951C24.6278 24.7983 26.1127 24.827 27.182 24.4651C28.2883 24.0907 29.363 23.1584 30.2132 22.2419Z" fill="white" stroke="white" stroke-width="1.5" stroke-linejoin="round"/>
</svg>
